<svg width="172" height="32" viewBox="0 0 172 32" fill="none" xmlns="http://www.w3.org/2000/svg">
<g clip-path="url(#clip0_2_810)">
<path d="M41.9779 10.5906H29.0221V1H26V23H29.0221V13.3622H41.9779V23H45V1H41.9779V10.5906Z" fill="#494D58"/>
<path d="M12.975 1H0V3.95269H12.36C15.99 3.95269 17.865 6.31811 17.865 10.2659V11H21V10.0049C21 4.53997 18.24 1 12.975 1Z" fill="#494D58"/>
<path d="M17.8778 13.719C17.8778 17.6732 16.0014 20.0425 12.3688 20.0425H0V23H12.9843C18.253 23 21 19.4542 21 13.9967V13H17.8628V13.719H17.8778Z" fill="#494D58"/>
<path d="M54.0429 13.7353V13H51V13.9967C51 19.4542 53.6789 23 58.7747 23H70V20.0425H59.3862C55.8628 20.0588 54.0429 17.6895 54.0429 13.7353Z" fill="#494D58"/>
<path d="M14 10H4V13H14V10Z" fill="#494D58"/>
<path d="M88.9689 0C85.5215 0 82.9099 1.34572 81.2384 3.34866H81.119V0.610269H78V32H81.119V19.8572H81.2384C82.8203 21.8132 85.4767 23.1589 88.7898 23.2059C95.0129 23.2998 100.132 18.1046 99.9974 11.5325C100.012 4.96039 95.0726 0 88.9689 0ZM88.5958 20.2015C84.2828 20.2015 81.119 17.0719 81.119 13.2381V9.88949C81.119 6.05575 84.2679 2.92616 88.8047 2.92616C93.4609 2.92616 96.5351 6.32176 96.5351 11.5482C96.5202 16.8528 93.3266 20.2015 88.5958 20.2015Z" fill="#494D58"/>
<path d="M168.216 23H172L161.058 11.9606L170.977 1H167.237L158.53 10.5906H155.039V1H152V23H155.039V13.3622H158.72L168.216 23Z" fill="#494D58"/>
<path d="M130.073 18.0079V1H127V23H129.816L142.912 6.03937V23H146V1H143.169L130.073 18.0079Z" fill="#494D58"/>
<path d="M65.0622 1H58.9378C53.7203 1 51 4.30877 51 9.40152V10.3316H54.1068V9.64549C54.1068 5.95553 55.9649 3.7446 59.5622 3.7446H64.7351C68.3324 3.7446 70.1905 5.95553 70.1905 9.64549V10.3316H56.9162V13H73V10.3316V9.40152C73 4.30877 70.2797 1 65.0622 1Z" fill="#494D58"/>
<path d="M119.245 11.4252C120.818 10.6378 121.679 8.9685 121.679 6.6063C121.679 3.3622 119.319 1 115.073 1H104V23H115.816C120.402 23 123 20.7165 123 17.0787C123 13.9606 121.679 12.2126 119.245 11.4252ZM106.969 4.05512H114.198C116.632 4.05512 118.487 5.11024 118.487 7.17323C118.487 9.18898 116.632 10.3228 114.198 10.3228H106.969V4.05512ZM115.445 19.9291H106.984V13.126H115.163C117.849 13.126 119.823 14.4016 119.823 16.5906C119.823 18.7795 118.131 19.9291 115.445 19.9291Z" fill="#494D58"/>
</g>
<defs>
<clipPath id="clip0_2_810">
<rect width="172" height="32" fill="white"/>
</clipPath>
</defs>
</svg>
