<?xml version="1.0" encoding="utf-8"?><svg viewBox="0 0 110 83" xmlns="http://www.w3.org/2000/svg" xmlns:xlink="http://www.w3.org/1999/xlink"><style>:root>svg{display:none}:root>svg:target{display:block}</style><svg viewBox="0 0 26 14" id="angle-down" xmlns="http://www.w3.org/2000/svg"><path d="M1 1l12 12L25 1" stroke="currentColor" stroke-width="2" stroke-linejoin="bevel" opacity=".56"/></svg><svg viewBox="0 0 57 26" id="arrow-left" xmlns="http://www.w3.org/2000/svg"><path d="M57 13H11M16.438 25L1 13 16.438 1" stroke="currentColor" stroke-width="2" stroke-linejoin="bevel"/></svg><svg viewBox="0 0 57 26" id="arrow-right" xmlns="http://www.w3.org/2000/svg"><path d="M0 13h46M40.563 25L56 13 40.562 1" stroke="currentColor" stroke-width="2" stroke-linejoin="bevel"/></svg><svg viewBox="0 0 110 26" id="arrow-right-long" xmlns="http://www.w3.org/2000/svg"><path d="M0 13h99M93.563 25L109 13 93.562 1" stroke="currentColor" stroke-width="2" stroke-linejoin="bevel"/></svg><svg viewBox="0 0 20 23" id="download" xmlns="http://www.w3.org/2000/svg"><path d="M10 .5v12M0 21.5h20M1 10.5l9 7 9-7" stroke="currentColor" stroke-width="2" stroke-linejoin="bevel"/></svg><svg viewBox="0 0 82 82" id="graph" xmlns="http://www.w3.org/2000/svg"><g clip-path="url(#fclip0_1_784)" stroke="currentColor" stroke-width="2" stroke-linejoin="bevel"><path d="M.81 69.088V82M26.555 56.27V82M52.252 43.454V82M77.996 30.637V82M.81 43.454L67.65 10.1M73.943 11.721L82 .858H68.46"/></g><defs><clipPath id="fclip0_1_784"><path d="M0 0h82v82H0z"/></clipPath></defs></svg><svg viewBox="0 0 96 82" id="lightbold" xmlns="http://www.w3.org/2000/svg"><g clip-path="url(#gclip0_1_1980)" stroke="currentColor" stroke-width="2" stroke-linejoin="bevel"><path d="M21 21.269L1 41.536l20 20.22M74 61.756l21-20.243-21-20.244M60 1.025L34 41.006h26L34 80.988"/></g><defs><clipPath id="gclip0_1_1980"><path d="M0 0h96v82H0z"/></clipPath></defs></svg><svg viewBox="0 0 82 82" id="note" xmlns="http://www.w3.org/2000/svg"><g clip-path="url(#hclip0_1_1985)" stroke="currentColor" stroke-width="2" stroke-linejoin="bevel"><path d="M54.857 1.025H1.025v79.95h79.95V54.388M80.975 1.025L41 54.325"/></g><defs><clipPath id="hclip0_1_1985"><path d="M0 0h82v82H0z"/></clipPath></defs></svg><svg viewBox="0 0 82 83" id="rocket" xmlns="http://www.w3.org/2000/svg"><g clip-path="url(#iclip0_1_1989)" stroke="currentColor" stroke-width="2" stroke-linejoin="bevel"><path d="M82 55.508L41.52 82.5V1.525L82 28.517M0 42.525h26.987M13.494 8.7l20.76 20.5M13.494 76.35l20.76-20.5"/></g><defs><clipPath id="iclip0_1_1989"><path transform="translate(0 .5)" d="M0 0h82v82H0z"/></clipPath></defs></svg><svg viewBox="0 0 32 32" id="search" xmlns="http://www.w3.org/2000/svg"><circle cx="20.964" cy="11.036" r="7.51" stroke="currentColor" stroke-width="2"/><path d="M12.454 19.546l-9.928 9.928" stroke="currentColor" stroke-width="2"/></svg><svg viewBox="0 0 26 26" id="vk" xmlns="http://www.w3.org/2000/svg"><path d="M1.4 12.5c0-5.421 0-8.132 1.685-9.816C4.769 1 7.479 1 12.9 1h1c5.421 0 8.132 0 9.816 1.684C25.4 4.368 25.4 7.08 25.4 12.5v1c0 5.421 0 8.132-1.684 9.816C22.032 25 19.321 25 13.9 25h-1c-5.42 0-8.131 0-9.815-1.684C1.4 21.632 1.4 18.92 1.4 13.5v-1z" stroke="currentColor"/><path fill-rule="evenodd" clip-rule="evenodd" d="M7.901 8.5h-1.75c-.5 0-.6.235-.6.495 0 .463.593 2.762 2.763 5.803C9.76 16.874 11.798 18 13.653 18c1.112 0 1.25-.25 1.25-.68v-1.57c0-.5.105-.6.458-.6.26 0 .704.13 1.743 1.131C18.29 17.468 18.486 18 19.154 18h1.75c.5 0 .75-.25.606-.743-.158-.492-.724-1.206-1.476-2.051-.408-.482-1.02-1.001-1.206-1.26-.26-.335-.185-.483 0-.78 0 0 2.133-3.003 2.356-4.023.11-.37 0-.643-.53-.643h-1.75c-.445 0-.65.235-.762.495 0 0-.89 2.17-2.15 3.578-.409.408-.594.538-.817.538-.111 0-.272-.13-.272-.5V9.142c0-.445-.13-.643-.5-.643h-2.75c-.279 0-.446.207-.446.402 0 .422.63.52.695 1.706v2.577c0 .565-.102.667-.324.667-.594 0-2.037-2.178-2.893-4.672-.168-.484-.336-.68-.784-.68z" stroke="currentColor"/></svg><svg viewBox="0 0 36 26" id="youtube" xmlns="http://www.w3.org/2000/svg"><path d="M34.68 4.748a4.3 4.3 0 00-3.04-3.031C28.957 1 18.2 1 18.2 1S7.442 1 4.76 1.717a4.3 4.3 0 00-3.04 3.03C1 7.42 1 13 1 13s0 5.58.72 8.252a4.3 4.3 0 003.04 3.031C7.443 25 18.2 25 18.2 25s10.758 0 13.44-.717a4.3 4.3 0 003.04-3.03c.72-2.674.72-8.253.72-8.253s-.003-5.58-.72-8.252z" stroke="currentColor"/><path d="M14.756 18.142l8.937-5.141-8.937-5.143v10.284z" stroke="currentColor"/></svg></svg>