<svg width="203" height="17" viewBox="0 0 203 17" fill="none" xmlns="http://www.w3.org/2000/svg">
<path d="M0.803408 0.464614H4.32331V7.15678L9.75527 0.442886H13.4925L7.34348 7.80861L13.7966 16H9.69008L4.32331 9.02537V16H0.803408V0.464614ZM19.848 13.8489C20.7316 13.8489 21.4124 13.5448 21.8904 12.9364C22.3829 12.328 22.6292 11.4806 22.6292 10.3942V10.2421C22.6292 9.15574 22.3829 8.30835 21.8904 7.69998C21.4124 7.07711 20.7316 6.76568 19.848 6.76568C18.9789 6.76568 18.2981 7.06987 17.8056 7.67825C17.3131 8.27214 17.0668 9.11228 17.0668 10.1987V10.3725C17.0668 11.4734 17.3059 12.328 17.7839 12.9364C18.2619 13.5448 18.9499 13.8489 19.848 13.8489ZM19.8263 16.239C18.0881 16.239 16.6685 15.7103 15.5676 14.6529C14.4233 13.5955 13.8511 12.1904 13.8511 10.4377V10.2639C13.8511 8.51115 14.4233 7.08435 15.5676 5.98348C16.683 4.91157 18.1098 4.37562 19.848 4.37562C21.6007 4.37562 23.0275 4.90433 24.1284 5.96175C25.2582 7.06263 25.8232 8.47493 25.8232 10.1987V10.3725C25.8232 12.1252 25.251 13.552 24.1067 14.6529C23.0058 15.7103 21.579 16.239 19.8263 16.239ZM30.1521 7.8738V16H27.7837V4.63635H31.9338L34.5194 11.6327L37.1702 4.63635H41.0377V16H37.9524V7.8738L34.8236 16H33.2374L30.1521 7.8738ZM51.0154 6.87432H47.0174V16H43.9104V4.63635H54.1224V16H51.0154V6.87432ZM60.1108 16.239C59.01 16.239 58.1191 15.971 57.4383 15.4351C56.6851 14.8412 56.3085 13.9793 56.3085 12.8495C56.3085 11.5893 56.8589 10.6477 57.9598 10.0249C58.9448 9.47441 60.3643 9.19919 62.2184 9.19919H63.5004V8.74291C63.5004 8.01865 63.3628 7.48994 63.0875 7.15678C62.8268 6.82362 62.3488 6.65704 61.6535 6.65704C60.5381 6.65704 59.8936 7.19299 59.7197 8.2649H56.743C56.8299 6.9902 57.3586 6.00521 58.3291 5.30992C59.2127 4.68705 60.386 4.37562 61.8491 4.37562C63.3121 4.37562 64.4564 4.69429 65.282 5.33164C66.1656 6.02693 66.6074 7.11332 66.6074 8.59082V16H63.5438V14.6311C62.7761 15.7031 61.6318 16.239 60.1108 16.239ZM61.0451 14.0445C61.7549 14.0445 62.3416 13.8634 62.8051 13.5013C63.2686 13.1392 63.5004 12.6467 63.5004 12.0238V11.0678H62.2836C61.3276 11.0678 60.6033 11.1909 60.1108 11.4372C59.6328 11.6834 59.3938 12.0962 59.3938 12.6756C59.3938 13.5882 59.9442 14.0445 61.0451 14.0445ZM76.5252 11.3285H72.31V16H69.2029V4.63635H72.31V9.09056H76.5252V4.63635H79.6322V16H76.5252V11.3285ZM82.4645 16V4.63635H85.5716V12.2194L89.9606 4.63635H93.0677V16H89.9606V8.41699L85.5716 16H82.4645ZM100.547 6.85259C99.2724 6.85259 98.6351 7.35233 98.6351 8.35181V8.41699C98.6351 9.43096 99.2724 9.93794 100.547 9.93794H101.829V6.85259H100.547ZM98.1136 16H94.7024L97.6139 11.372C96.1798 10.865 95.4628 9.86551 95.4628 8.37354V8.30835C95.4628 7.14954 95.8467 6.25145 96.6144 5.61411C97.3966 4.96227 98.5047 4.63635 99.9388 4.63635H104.958V16H101.829V12.0238H100.504L98.1136 16ZM114.598 16.1956C113.99 16.1956 113.534 16.1086 113.23 15.9348V13.1319C113.244 13.1319 113.309 13.1464 113.425 13.1754C113.541 13.2044 113.679 13.2333 113.838 13.2623C113.997 13.2768 114.164 13.284 114.338 13.284C115.265 13.284 116.011 12.7553 116.576 11.6979L111.252 0.464614H114.946L118.227 7.85207L121.312 0.464614H124.702L119.552 12.1542C118.944 13.5158 118.278 14.5298 117.553 15.1961C116.844 15.8624 115.859 16.1956 114.598 16.1956ZM126.587 0.464614H130.107V6.80914H136.343V0.464614H139.863V16H136.343V9.5903H130.107V16H126.587V0.464614ZM143.05 16V0.464614H146.57V11.3285L153.088 0.464614H156.608V16H153.088V5.04918L146.57 16H143.05ZM160.091 0.464614H163.611V7.15678L169.043 0.442886H172.78L166.631 7.80861L173.084 16H168.978L163.611 9.02537V16H160.091V0.464614ZM178.876 0.464614H183.46L188.501 16H184.829L183.765 12.5453H178.137L177.072 16H173.77L178.876 0.464614ZM178.898 10.0466H183.004L180.962 3.33269L178.898 10.0466ZM202.01 11.1982C202.01 12.7481 201.518 13.9359 200.533 14.7615C199.562 15.5872 198.114 16 196.187 16H190.494V0.464614H200.619V3.20232H193.993L193.971 6.46149H196.296C198.135 6.46149 199.548 6.85259 200.533 7.63479C201.518 8.40251 202.01 9.56132 202.01 11.1112V11.1982ZM196.057 13.3275C197.78 13.3275 198.642 12.6105 198.642 11.1764V11.0895C198.642 9.65548 197.751 8.93846 195.97 8.93846H193.971V13.3275H196.057Z" fill="#494D58"/>
</svg>
